<svg width="393" height="852" viewBox="0 0 393 852" fill="none" xmlns="http://www.w3.org/2000/svg">
<g clip-path="url(#clip0_387_10873)">
<rect width="393" height="852" fill="#4600A9"/>
<path d="M34.2961 113L30.5521 103.952L26.8081 113H23.5441L19.4401 95.96H23.1361L25.7281 107.288L30.5521 95.672L35.3761 107.288L37.9681 95.96H41.6641L37.5601 113H34.2961ZM48.4323 113.264C46.6083 113.264 45.0883 112.688 43.8723 111.536C42.6723 110.384 42.0723 108.872 42.0723 107C42.0723 105.208 42.6723 103.72 43.8723 102.536C45.0723 101.336 46.5763 100.736 48.3843 100.736C50.0483 100.736 51.4483 101.256 52.5843 102.296C53.7203 103.32 54.2883 104.768 54.2883 106.64C54.2883 107.168 54.2723 107.544 54.2403 107.768H45.2643C45.3603 108.552 45.7043 109.168 46.2963 109.616C46.9043 110.048 47.6243 110.264 48.4563 110.264C49.8643 110.264 50.8963 109.76 51.5523 108.752L54.0003 110.576C52.7683 112.368 50.9123 113.264 48.4323 113.264ZM45.3843 105.536H51.0003C50.8563 104.848 50.5283 104.328 50.0163 103.976C49.5203 103.624 48.9443 103.448 48.2883 103.448C47.6163 103.448 47.0003 103.624 46.4403 103.976C45.8803 104.328 45.5283 104.848 45.3843 105.536ZM56.8853 113V95H60.1733V113H56.8853ZM69.0926 113.264C67.3006 113.264 65.7886 112.672 64.5566 111.488C63.3406 110.288 62.7326 108.792 62.7326 107C62.7326 105.208 63.3406 103.72 64.5566 102.536C65.7886 101.336 67.3006 100.736 69.0926 100.736C70.3246 100.736 71.4446 101.056 72.4526 101.696C73.4766 102.32 74.2526 103.152 74.7806 104.192L71.9246 105.728C71.6686 105.152 71.2926 104.688 70.7966 104.336C70.3166 103.984 69.7486 103.808 69.0926 103.808C68.2286 103.808 67.5006 104.112 66.9086 104.72C66.3326 105.328 66.0446 106.088 66.0446 107C66.0446 107.912 66.3326 108.672 66.9086 109.28C67.5006 109.888 68.2286 110.192 69.0926 110.192C69.7486 110.192 70.3166 110.016 70.7966 109.664C71.2926 109.312 71.6686 108.848 71.9246 108.272L74.7806 109.808C74.2526 110.848 73.4766 111.688 72.4526 112.328C71.4446 112.952 70.3246 113.264 69.0926 113.264ZM87.0374 111.464C85.8054 112.664 84.3174 113.264 82.5734 113.264C80.8294 113.264 79.3414 112.664 78.1094 111.464C76.8774 110.248 76.2614 108.76 76.2614 107C76.2614 105.256 76.8774 103.776 78.1094 102.56C79.3414 101.344 80.8294 100.736 82.5734 100.736C84.3174 100.736 85.8054 101.344 87.0374 102.56C88.2694 103.776 88.8854 105.256 88.8854 107C88.8854 108.76 88.2694 110.248 87.0374 111.464ZM82.5734 110.192C83.4214 110.192 84.1254 109.896 84.6854 109.304C85.2614 108.696 85.5494 107.928 85.5494 107C85.5494 106.072 85.2614 105.312 84.6854 104.72C84.1254 104.112 83.4214 103.808 82.5734 103.808C81.7094 103.808 80.9894 104.112 80.4134 104.72C79.8534 105.312 79.5734 106.072 79.5734 107C79.5734 107.928 79.8534 108.696 80.4134 109.304C80.9894 109.896 81.7094 110.192 82.5734 110.192ZM106.546 113V106.592C106.546 104.688 105.922 103.736 104.674 103.736C103.954 103.736 103.378 104.008 102.946 104.552C102.53 105.096 102.306 105.904 102.274 106.976V113H98.9865V106.592C98.9865 104.688 98.3625 103.736 97.1145 103.736C96.3785 103.736 95.7945 104.024 95.3625 104.6C94.9305 105.176 94.7145 106.024 94.7145 107.144V113H91.4265V101H94.7145V102.368C95.4665 101.28 96.5305 100.736 97.9065 100.736C99.5865 100.736 100.826 101.472 101.626 102.944C101.978 102.256 102.506 101.72 103.21 101.336C103.914 100.936 104.626 100.736 105.346 100.736C106.77 100.736 107.874 101.208 108.658 102.152C109.443 103.096 109.835 104.392 109.835 106.04V113H106.546ZM118.61 113.264C116.786 113.264 115.266 112.688 114.05 111.536C112.85 110.384 112.25 108.872 112.25 107C112.25 105.208 112.85 103.72 114.05 102.536C115.25 101.336 116.754 100.736 118.562 100.736C120.226 100.736 121.626 101.256 122.762 102.296C123.898 103.32 124.466 104.768 124.466 106.64C124.466 107.168 124.45 107.544 124.418 107.768H115.442C115.538 108.552 115.882 109.168 116.474 109.616C117.082 110.048 117.802 110.264 118.634 110.264C120.042 110.264 121.074 109.76 121.73 108.752L124.178 110.576C122.946 112.368 121.09 113.264 118.61 113.264ZM115.562 105.536H121.178C121.034 104.848 120.706 104.328 120.194 103.976C119.698 103.624 119.122 103.448 118.466 103.448C117.794 103.448 117.178 103.624 116.618 103.976C116.058 104.328 115.706 104.848 115.562 105.536ZM133.006 113V95.96H143.614V99.272H136.486V102.776H142.174V106.088H136.486V109.688H143.614V113H133.006ZM150.526 118.016H146.95L149.47 112.328L144.43 101H148.03L151.246 108.776L154.438 101H158.062L150.526 118.016ZM165.04 113.264C163.216 113.264 161.696 112.688 160.48 111.536C159.28 110.384 158.68 108.872 158.68 107C158.68 105.208 159.28 103.72 160.48 102.536C161.68 101.336 163.184 100.736 164.992 100.736C166.656 100.736 168.056 101.256 169.192 102.296C170.328 103.32 170.896 104.768 170.896 106.64C170.896 107.168 170.88 107.544 170.848 107.768H161.872C161.968 108.552 162.312 109.168 162.904 109.616C163.512 110.048 164.232 110.264 165.064 110.264C166.472 110.264 167.504 109.76 168.16 108.752L170.608 110.576C169.376 112.368 167.52 113.264 165.04 113.264ZM161.992 105.536H167.608C167.464 104.848 167.136 104.328 166.624 103.976C166.128 103.624 165.552 103.448 164.896 103.448C164.224 103.448 163.608 103.624 163.048 103.976C162.488 104.328 162.136 104.848 161.992 105.536ZM179.436 113V95.96H182.916V102.752H190.308V95.96H193.788V113H190.308V106.064H182.916V113H179.436ZM202.746 113.264C200.922 113.264 199.402 112.688 198.186 111.536C196.986 110.384 196.386 108.872 196.386 107C196.386 105.208 196.986 103.72 198.186 102.536C199.386 101.336 200.89 100.736 202.698 100.736C204.362 100.736 205.762 101.256 206.898 102.296C208.034 103.32 208.602 104.768 208.602 106.64C208.602 107.168 208.586 107.544 208.554 107.768H199.578C199.674 108.552 200.018 109.168 200.61 109.616C201.218 110.048 201.938 110.264 202.77 110.264C204.178 110.264 205.21 109.76 205.866 108.752L208.314 110.576C207.082 112.368 205.226 113.264 202.746 113.264ZM199.698 105.536H205.314C205.17 104.848 204.842 104.328 204.33 103.976C203.834 103.624 203.258 103.448 202.602 103.448C201.93 103.448 201.314 103.624 200.754 103.976C200.194 104.328 199.842 104.848 199.698 105.536ZM216.071 113.264C214.487 113.264 213.151 112.648 212.063 111.416C210.975 110.184 210.431 108.712 210.431 107C210.431 105.288 210.975 103.816 212.063 102.584C213.151 101.352 214.487 100.736 216.071 100.736C216.839 100.736 217.527 100.896 218.135 101.216C218.743 101.536 219.207 101.912 219.527 102.344V101H222.815V113H219.527V111.656C219.207 112.088 218.743 112.464 218.135 112.784C217.527 113.104 216.839 113.264 216.071 113.264ZM214.559 109.352C215.119 109.96 215.855 110.264 216.767 110.264C217.679 110.264 218.407 109.96 218.951 109.352C219.511 108.744 219.791 107.96 219.791 107C219.791 106.04 219.511 105.256 218.951 104.648C218.407 104.04 217.679 103.736 216.767 103.736C215.855 103.736 215.119 104.04 214.559 104.648C214.015 105.256 213.743 106.04 213.743 107C213.743 107.96 214.015 108.744 214.559 109.352ZM226.181 113V95H229.469V113H226.181ZM238.604 113.144C237.26 113.144 236.156 112.776 235.292 112.04C234.444 111.288 234.02 110.208 234.02 108.8V103.88H231.596V101H234.02V97.664H237.308V101H240.692V103.88H237.308V108.152C237.308 108.888 237.468 109.416 237.788 109.736C238.108 110.04 238.628 110.192 239.348 110.192C239.86 110.192 240.308 110.12 240.692 109.976V112.88C240.116 113.056 239.42 113.144 238.604 113.144ZM246.497 113H243.209V95H246.497V102.368C247.233 101.28 248.377 100.736 249.929 100.736C251.369 100.736 252.497 101.216 253.313 102.176C254.145 103.12 254.561 104.384 254.561 105.968V113H251.273V106.52C251.273 105.64 251.089 104.96 250.721 104.48C250.353 103.984 249.833 103.736 249.161 103.736C248.361 103.736 247.713 104.024 247.217 104.6C246.737 105.176 246.497 106.024 246.497 107.144V113Z" fill="#65C3EB"/>
<path d="M29.4985 138V128.06H30.8005V138H29.4985ZM33.3967 138V131H34.6007V132.078C35.0767 131.266 35.8187 130.86 36.8267 130.86C37.62 130.86 38.2594 131.117 38.7447 131.63C39.23 132.143 39.4727 132.829 39.4727 133.688V138H38.2827V133.87C38.2827 133.282 38.1334 132.82 37.8347 132.484C37.536 132.139 37.1347 131.966 36.6307 131.966C36.052 131.966 35.5667 132.195 35.1747 132.652C34.792 133.109 34.6007 133.735 34.6007 134.528V138H33.3967ZM44.6948 138.14C43.7242 138.14 42.9075 137.785 42.2448 137.076C41.5915 136.367 41.2648 135.508 41.2648 134.5C41.2648 133.492 41.5915 132.633 42.2448 131.924C42.9075 131.215 43.7242 130.86 44.6948 130.86C45.2082 130.86 45.6842 130.977 46.1228 131.21C46.5708 131.434 46.9162 131.723 47.1588 132.078V127.5H48.3628V138H47.1588V136.922C46.9162 137.277 46.5708 137.571 46.1228 137.804C45.6842 138.028 45.2082 138.14 44.6948 138.14ZM44.8768 137.034C45.5675 137.034 46.1368 136.791 46.5848 136.306C47.0328 135.821 47.2568 135.219 47.2568 134.5C47.2568 133.781 47.0328 133.179 46.5848 132.694C46.1368 132.209 45.5675 131.966 44.8768 131.966C44.1768 131.966 43.6028 132.209 43.1548 132.694C42.7068 133.179 42.4828 133.781 42.4828 134.5C42.4828 135.219 42.7068 135.821 43.1548 136.306C43.6028 136.791 44.1768 137.034 44.8768 137.034ZM52.0172 128.886C51.8585 129.045 51.6579 129.124 51.4152 129.124C51.1725 129.124 50.9672 129.045 50.7992 128.886C50.6312 128.718 50.5472 128.513 50.5472 128.27C50.5472 128.037 50.6312 127.836 50.7992 127.668C50.9672 127.5 51.1725 127.416 51.4152 127.416C51.6579 127.416 51.8585 127.5 52.0172 127.668C52.1759 127.836 52.2552 128.037 52.2552 128.27C52.2552 128.513 52.1759 128.718 52.0172 128.886ZM50.7992 138V131H52.0032V138H50.7992ZM57.3395 138.14C56.3689 138.14 55.5522 137.785 54.8895 137.076C54.2362 136.367 53.9095 135.508 53.9095 134.5C53.9095 133.492 54.2362 132.633 54.8895 131.924C55.5522 131.215 56.3689 130.86 57.3395 130.86C57.8529 130.86 58.3289 130.977 58.7675 131.21C59.2155 131.434 59.5609 131.723 59.8035 132.078V131H61.0075V138H59.8035V136.922C59.5609 137.277 59.2155 137.571 58.7675 137.804C58.3289 138.028 57.8529 138.14 57.3395 138.14ZM57.5215 137.034C58.2122 137.034 58.7815 136.791 59.2295 136.306C59.6775 135.821 59.9015 135.219 59.9015 134.5C59.9015 133.781 59.6775 133.179 59.2295 132.694C58.7815 132.209 58.2122 131.966 57.5215 131.966C56.8215 131.966 56.2475 132.209 55.7995 132.694C55.3515 133.179 55.1275 133.781 55.1275 134.5C55.1275 135.219 55.3515 135.821 55.7995 136.306C56.2475 136.791 56.8215 137.034 57.5215 137.034ZM65.2359 129.572L63.7939 131.882H62.9819L63.9199 129.88C63.7519 129.796 63.6119 129.67 63.4999 129.502C63.3972 129.325 63.3459 129.138 63.3459 128.942C63.3459 128.653 63.4439 128.405 63.6399 128.2C63.8452 127.995 64.0972 127.892 64.3959 127.892C64.6852 127.892 64.9279 127.995 65.1239 128.2C65.3292 128.405 65.4319 128.653 65.4319 128.942C65.4319 129.147 65.3665 129.357 65.2359 129.572ZM68.8314 138.14C68.1874 138.14 67.6227 138.005 67.1374 137.734C66.6521 137.454 66.3021 137.048 66.0874 136.516L67.0674 135.97C67.1981 136.315 67.4267 136.586 67.7534 136.782C68.0801 136.978 68.4441 137.076 68.8454 137.076C69.1907 137.076 69.4801 136.992 69.7134 136.824C69.9467 136.656 70.0634 136.427 70.0634 136.138C70.0634 135.886 69.9701 135.676 69.7834 135.508C69.6061 135.34 69.2934 135.186 68.8454 135.046L68.1454 134.822C66.9787 134.486 66.3954 133.805 66.3954 132.778C66.3954 132.199 66.6241 131.737 67.0814 131.392C67.5481 131.037 68.1221 130.86 68.8034 130.86C69.8674 130.86 70.6374 131.266 71.1134 132.078L70.2174 132.694C69.8347 132.162 69.3494 131.896 68.7614 131.896C68.4441 131.896 68.1687 131.975 67.9354 132.134C67.7114 132.283 67.5994 132.484 67.5994 132.736C67.5994 132.969 67.6694 133.17 67.8094 133.338C67.9587 133.497 68.2201 133.632 68.5934 133.744L69.3634 133.982C70.6327 134.374 71.2674 135.06 71.2674 136.04C71.2674 136.693 71.0387 137.207 70.5814 137.58C70.1334 137.953 69.5501 138.14 68.8314 138.14ZM77.1474 138V132.106H75.6634V131H77.1474V129.586C77.1474 128.886 77.3434 128.349 77.7354 127.976C78.1274 127.603 78.6454 127.416 79.2894 127.416C79.672 127.416 80.036 127.477 80.3814 127.598V128.662C80.1667 128.569 79.8774 128.522 79.5134 128.522C79.112 128.522 78.818 128.611 78.6314 128.788C78.4447 128.965 78.3514 129.273 78.3514 129.712V131H80.3814V132.106H78.3514V138H77.1474ZM83.088 128.886C82.9293 129.045 82.7286 129.124 82.486 129.124C82.2433 129.124 82.038 129.045 81.87 128.886C81.702 128.718 81.618 128.513 81.618 128.27C81.618 128.037 81.702 127.836 81.87 127.668C82.038 127.5 82.2433 127.416 82.486 127.416C82.7286 127.416 82.9293 127.5 83.088 127.668C83.2466 127.836 83.326 128.037 83.326 128.27C83.326 128.513 83.2466 128.718 83.088 128.886ZM81.87 138V131H83.074V138H81.87ZM85.5263 138V131H86.7303V132.358C86.861 131.929 87.113 131.583 87.4863 131.322C87.869 131.061 88.2703 130.93 88.6903 130.93C88.8956 130.93 89.0776 130.949 89.2363 130.986V132.232C89.0683 132.157 88.849 132.12 88.5783 132.12C88.093 132.12 87.6636 132.33 87.2903 132.75C86.917 133.17 86.7303 133.763 86.7303 134.528V138H85.5263ZM92.8005 138.14C92.1565 138.14 91.5919 138.005 91.1065 137.734C90.6212 137.454 90.2712 137.048 90.0565 136.516L91.0365 135.97C91.1672 136.315 91.3959 136.586 91.7225 136.782C92.0492 136.978 92.4132 137.076 92.8145 137.076C93.1599 137.076 93.4492 136.992 93.6825 136.824C93.9159 136.656 94.0325 136.427 94.0325 136.138C94.0325 135.886 93.9392 135.676 93.7525 135.508C93.5752 135.34 93.2625 135.186 92.8145 135.046L92.1145 134.822C90.9479 134.486 90.3645 133.805 90.3645 132.778C90.3645 132.199 90.5932 131.737 91.0505 131.392C91.5172 131.037 92.0912 130.86 92.7725 130.86C93.8365 130.86 94.6065 131.266 95.0825 132.078L94.1865 132.694C93.8039 132.162 93.3185 131.896 92.7305 131.896C92.4132 131.896 92.1379 131.975 91.9045 132.134C91.6805 132.283 91.5685 132.484 91.5685 132.736C91.5685 132.969 91.6385 133.17 91.7785 133.338C91.9279 133.497 92.1892 133.632 92.5625 133.744L93.3325 133.982C94.6019 134.374 95.2365 135.06 95.2365 136.04C95.2365 136.693 95.0079 137.207 94.5505 137.58C94.1025 137.953 93.5192 138.14 92.8005 138.14ZM99.8069 138.07C99.1629 138.07 98.6449 137.888 98.2529 137.524C97.8609 137.16 97.6649 136.628 97.6649 135.928V132.106H96.1809V131H97.6649V129.054H98.8689V131H100.885V132.106H98.8689V135.774C98.8689 136.213 98.9623 136.521 99.1489 136.698C99.3356 136.875 99.6296 136.964 100.031 136.964C100.386 136.964 100.67 136.917 100.885 136.824V137.902C100.549 138.014 100.19 138.07 99.8069 138.07ZM106.322 138V128.06H112.118V129.292H107.624V132.302H111.278V133.534H107.624V136.768H112.118V138H106.322ZM115.637 140.926H114.293L115.819 137.636L112.753 131H114.083L116.491 136.32L118.885 131H120.229L115.637 140.926ZM124.531 138.14C123.457 138.14 122.585 137.795 121.913 137.104C121.241 136.413 120.905 135.545 120.905 134.5C120.905 133.464 121.245 132.601 121.927 131.91C122.608 131.21 123.481 130.86 124.545 130.86C125.487 130.86 126.276 131.177 126.911 131.812C127.555 132.437 127.877 133.291 127.877 134.374C127.877 134.514 127.872 134.635 127.863 134.738H122.123C122.141 135.391 122.375 135.937 122.823 136.376C123.28 136.815 123.854 137.034 124.545 137.034C125.525 137.034 126.253 136.628 126.729 135.816L127.681 136.474C126.999 137.585 125.949 138.14 124.531 138.14ZM122.207 133.758H126.645C126.551 133.198 126.304 132.755 125.903 132.428C125.511 132.092 125.044 131.924 124.503 131.924C123.952 131.924 123.457 132.092 123.019 132.428C122.589 132.755 122.319 133.198 122.207 133.758ZM134.506 138H133.302V127.5H134.506V132.078C134.982 131.266 135.724 130.86 136.732 130.86C137.526 130.86 138.165 131.117 138.65 131.63C139.136 132.143 139.378 132.829 139.378 133.688V138H138.188V133.87C138.188 133.282 138.039 132.82 137.74 132.484C137.442 132.139 137.04 131.966 136.536 131.966C135.958 131.966 135.472 132.195 135.08 132.652C134.698 133.109 134.506 133.735 134.506 134.528V138ZM144.796 138.14C143.723 138.14 142.85 137.795 142.178 137.104C141.506 136.413 141.17 135.545 141.17 134.5C141.17 133.464 141.511 132.601 142.192 131.91C142.874 131.21 143.746 130.86 144.81 130.86C145.753 130.86 146.542 131.177 147.176 131.812C147.82 132.437 148.142 133.291 148.142 134.374C148.142 134.514 148.138 134.635 148.128 134.738H142.388C142.407 135.391 142.64 135.937 143.088 136.376C143.546 136.815 144.12 137.034 144.81 137.034C145.79 137.034 146.518 136.628 146.994 135.816L147.946 136.474C147.265 137.585 146.215 138.14 144.796 138.14ZM142.472 133.758H146.91C146.817 133.198 146.57 132.755 146.168 132.428C145.776 132.092 145.31 131.924 144.768 131.924C144.218 131.924 143.723 132.092 143.284 132.428C142.855 132.755 142.584 133.198 142.472 133.758ZM152.905 138.14C151.935 138.14 151.118 137.785 150.455 137.076C149.802 136.367 149.475 135.508 149.475 134.5C149.475 133.492 149.802 132.633 150.455 131.924C151.118 131.215 151.935 130.86 152.905 130.86C153.419 130.86 153.895 130.977 154.333 131.21C154.781 131.434 155.127 131.723 155.369 132.078V131H156.573V138H155.369V136.922C155.127 137.277 154.781 137.571 154.333 137.804C153.895 138.028 153.419 138.14 152.905 138.14ZM153.087 137.034C153.778 137.034 154.347 136.791 154.795 136.306C155.243 135.821 155.467 135.219 155.467 134.5C155.467 133.781 155.243 133.179 154.795 132.694C154.347 132.209 153.778 131.966 153.087 131.966C152.387 131.966 151.813 132.209 151.365 132.694C150.917 133.179 150.693 133.781 150.693 134.5C150.693 135.219 150.917 135.821 151.365 136.306C151.813 136.791 152.387 137.034 153.087 137.034ZM159.01 138V127.5H160.214V138H159.01ZM165.382 138.07C164.738 138.07 164.22 137.888 163.828 137.524C163.436 137.16 163.24 136.628 163.24 135.928V132.106H161.756V131H163.24V129.054H164.444V131H166.46V132.106H164.444V135.774C164.444 136.213 164.537 136.521 164.724 136.698C164.911 136.875 165.205 136.964 165.606 136.964C165.961 136.964 166.245 136.917 166.46 136.824V137.902C166.124 138.014 165.765 138.07 165.382 138.07ZM169.372 138H168.168V127.5H169.372V132.078C169.848 131.266 170.59 130.86 171.598 130.86C172.391 130.86 173.031 131.117 173.516 131.63C174.001 132.143 174.244 132.829 174.244 133.688V138H173.054V133.87C173.054 133.282 172.905 132.82 172.606 132.484C172.307 132.139 171.906 131.966 171.402 131.966C170.823 131.966 170.338 132.195 169.946 132.652C169.563 133.109 169.372 133.735 169.372 134.528V138ZM183.013 138.14C182.042 138.14 181.226 137.785 180.563 137.076C179.91 136.367 179.583 135.508 179.583 134.5C179.583 133.492 179.91 132.633 180.563 131.924C181.226 131.215 182.042 130.86 183.013 130.86C183.526 130.86 184.002 130.977 184.441 131.21C184.889 131.434 185.234 131.723 185.477 132.078V131H186.681V138H185.477V136.922C185.234 137.277 184.889 137.571 184.441 137.804C184.002 138.028 183.526 138.14 183.013 138.14ZM183.195 137.034C183.886 137.034 184.455 136.791 184.903 136.306C185.351 135.821 185.575 135.219 185.575 134.5C185.575 133.781 185.351 133.179 184.903 132.694C184.455 132.209 183.886 131.966 183.195 131.966C182.495 131.966 181.921 132.209 181.473 132.694C181.025 133.179 180.801 133.781 180.801 134.5C180.801 135.219 181.025 135.821 181.473 136.306C181.921 136.791 182.495 137.034 183.195 137.034ZM190.321 140.926H189.117V131H190.321V132.078C190.564 131.723 190.905 131.434 191.343 131.21C191.791 130.977 192.272 130.86 192.785 130.86C193.756 130.86 194.568 131.215 195.221 131.924C195.884 132.633 196.215 133.492 196.215 134.5C196.215 135.508 195.884 136.367 195.221 137.076C194.568 137.785 193.756 138.14 192.785 138.14C192.272 138.14 191.791 138.028 191.343 137.804C190.905 137.571 190.564 137.277 190.321 136.922V140.926ZM190.895 136.306C191.343 136.791 191.913 137.034 192.603 137.034C193.294 137.034 193.863 136.791 194.311 136.306C194.759 135.821 194.983 135.219 194.983 134.5C194.983 133.781 194.759 133.179 194.311 132.694C193.863 132.209 193.294 131.966 192.603 131.966C191.913 131.966 191.343 132.209 190.895 132.694C190.447 133.179 190.223 133.781 190.223 134.5C190.223 135.219 190.447 135.821 190.895 136.306ZM199.323 140.926H198.119V131H199.323V132.078C199.566 131.723 199.907 131.434 200.345 131.21C200.793 130.977 201.274 130.86 201.787 130.86C202.758 130.86 203.57 131.215 204.223 131.924C204.886 132.633 205.217 133.492 205.217 134.5C205.217 135.508 204.886 136.367 204.223 137.076C203.57 137.785 202.758 138.14 201.787 138.14C201.274 138.14 200.793 138.028 200.345 137.804C199.907 137.571 199.566 137.277 199.323 136.922V140.926ZM199.897 136.306C200.345 136.791 200.915 137.034 201.605 137.034C202.296 137.034 202.865 136.791 203.313 136.306C203.761 135.821 203.985 135.219 203.985 134.5C203.985 133.781 203.761 133.179 203.313 132.694C202.865 132.209 202.296 131.966 201.605 131.966C200.915 131.966 200.345 132.209 199.897 132.694C199.449 133.179 199.225 133.781 199.225 134.5C199.225 135.219 199.449 135.821 199.897 136.306Z" fill="white"/>
<path d="M8.91794 98.1229C-23.0165 106.81 -31.4811 132.924 -8.4413 146.056C14.5985 159.187 18.3004 136.438 -24.7566 84.7749C-52.8222 56.9361 -51.9596 -2.26291 18.3004 28.7605C106.125 67.5397 284.627 89.9044 324.833 59.3324C356.997 34.8749 393.363 49.1418 407.525 59.3324C424.23 71.3525 439.29 109.191 388.42 142.841C324.833 184.903 323.692 127.042 380.151 118.014C425.318 110.792 449.537 126.085 456 134.634" stroke="#7ECDEE" stroke-width="3"/>
<!--<path fill-rule="evenodd" clip-rule="evenodd" d="M311.941 12H310.882C310.298 12 309.824 12.5037 309.824 13.125V22.875C309.824 23.4963 310.298 24 310.882 24H311.941C312.526 24 313 23.4963 313 22.875V13.125C313 12.5037 312.526 12 311.941 12ZM305.941 14.625H307C307.585 14.625 308.059 15.1287 308.059 15.75V22.875C308.059 23.4963 307.585 24 307 24H305.941C305.356 24 304.882 23.4963 304.882 22.875V15.75C304.882 15.1287 305.356 14.625 305.941 14.625ZM302.059 17.25H301C300.415 17.25 299.941 17.7537 299.941 18.375V22.875C299.941 23.4963 300.415 24 301 24H302.059C302.644 24 303.118 23.4963 303.118 22.875V18.375C303.118 17.7537 302.644 17.25 302.059 17.25ZM297.118 19.5H296.059C295.474 19.5 295 20.0037 295 20.625V22.875C295 23.4963 295.474 24 296.059 24H297.118C297.702 24 298.176 23.4963 298.176 22.875V20.625C298.176 20.0037 297.702 19.5 297.118 19.5Z" fill="white" fill-opacity="0.9"/>-->
<!--<path fill-rule="evenodd" clip-rule="evenodd" d="M327 14.4922C329.322 14.4923 331.555 15.424 333.237 17.0948C333.364 17.2238 333.566 17.2222 333.691 17.0912L334.902 15.8145C334.965 15.748 335.001 15.658 335 15.5644C334.999 15.4707 334.963 15.3811 334.899 15.3155C330.483 10.8948 323.517 10.8948 319.101 15.3155C319.037 15.3811 319.001 15.4706 319 15.5643C318.999 15.6579 319.035 15.748 319.098 15.8145L320.309 17.0912C320.434 17.2224 320.637 17.224 320.763 17.0948C322.446 15.4239 324.679 14.4922 327 14.4922ZM327 18.6459C328.276 18.6458 329.506 19.141 330.451 20.0353C330.579 20.1622 330.781 20.1595 330.905 20.0291L332.115 18.7524C332.179 18.6854 332.214 18.5946 332.213 18.5002C332.212 18.4058 332.175 18.3157 332.11 18.2501C329.231 15.4526 324.772 15.4526 321.893 18.2501C321.828 18.3157 321.791 18.4058 321.79 18.5003C321.789 18.5947 321.825 18.6855 321.889 18.7524L323.098 20.0291C323.223 20.1595 323.424 20.1622 323.552 20.0353C324.497 19.1416 325.726 18.6464 327 18.6459ZM329.424 21.4406C329.425 21.5353 329.39 21.6265 329.325 21.6929L327.233 23.8987C327.171 23.9635 327.088 24 327 24C326.913 24 326.83 23.9635 326.768 23.8987L324.675 21.6929C324.611 21.6265 324.575 21.5352 324.577 21.4405C324.579 21.3459 324.618 21.2562 324.685 21.1928C326.022 20.0121 327.979 20.0121 329.315 21.1928C329.383 21.2563 329.422 21.3459 329.424 21.4406Z" fill="white" fill-opacity="0.9"/>-->
<!--<path opacity="0.4" fill-rule="evenodd" clip-rule="evenodd" d="M343.667 13H360.037C360.957 13 361.703 13.7462 361.703 14.6667V21.3333C361.703 22.2538 360.957 23 360.037 23H343.667C342.746 23 342 22.2538 342 21.3333V14.6667C342 13.7462 342.746 13 343.667 13ZM341 14.6667C341 13.1939 342.194 12 343.667 12H360.037C361.509 12 362.703 13.1939 362.703 14.6667V21.3333C362.703 22.8061 361.509 24 360.037 24H343.667C342.194 24 341 22.8061 341 21.3333V14.6667ZM365 18C365 18.9245 364.484 19.7589 363.69 20.1176V15.8824C364.484 16.2411 365 17.0755 365 18Z" fill="white" fill-opacity="0.9"/>-->
<!--<rect x="342.973" y="14.1177" width="17.7573" height="7.76471" rx="1.33333" fill="white" fill-opacity="0.9"/>-->
<!--<path d="M34.25 13.0127V23H32.6025V14.9678L30.1621 15.7949V14.4346L34.0518 13.0127H34.25ZM44.3949 21.6875V23H37.723V21.8721L40.9632 18.3379C41.3187 17.9368 41.599 17.5905 41.804 17.2988C42.0091 17.0072 42.1527 16.7451 42.2347 16.5127C42.3213 16.2757 42.3646 16.0456 42.3646 15.8223C42.3646 15.5078 42.3053 15.2321 42.1869 14.9951C42.0729 14.7536 41.9043 14.5645 41.681 14.4277C41.4577 14.2865 41.1865 14.2158 40.8675 14.2158C40.4984 14.2158 40.1885 14.2956 39.9378 14.4551C39.6872 14.6146 39.498 14.8356 39.3704 15.1182C39.2428 15.3962 39.179 15.7152 39.179 16.0752H37.5316C37.5316 15.4964 37.6637 14.9678 37.9281 14.4893C38.1924 14.0062 38.5752 13.6234 39.0765 13.3408C39.5778 13.0537 40.1816 12.9102 40.888 12.9102C41.5534 12.9102 42.1185 13.0218 42.5833 13.2451C43.0482 13.4684 43.4014 13.7852 43.6429 14.1953C43.889 14.6055 44.012 15.0908 44.012 15.6514C44.012 15.9613 43.9619 16.2689 43.8617 16.5742C43.7614 16.8796 43.6178 17.1849 43.431 17.4902C43.2487 17.791 43.0322 18.0941 42.7816 18.3994C42.5309 18.7002 42.2552 19.0055 41.9544 19.3154L39.8011 21.6875H44.3949ZM45.8102 22.1797C45.8102 21.9245 45.8968 21.7103 46.07 21.5371C46.2432 21.3594 46.4779 21.2705 46.7741 21.2705C47.0749 21.2705 47.3096 21.3594 47.4782 21.5371C47.6514 21.7103 47.738 21.9245 47.738 22.1797C47.738 22.4349 47.6514 22.6491 47.4782 22.8223C47.3096 22.9954 47.0749 23.082 46.7741 23.082C46.4779 23.082 46.2432 22.9954 46.07 22.8223C45.8968 22.6491 45.8102 22.4349 45.8102 22.1797ZM45.8171 16.3555C45.8171 16.1003 45.9037 15.8861 46.0768 15.7129C46.25 15.5352 46.4847 15.4463 46.7809 15.4463C47.0817 15.4463 47.3164 15.5352 47.485 15.7129C47.6582 15.8861 47.7448 16.1003 47.7448 16.3555C47.7448 16.6107 47.6582 16.8249 47.485 16.998C47.3164 17.1712 47.0817 17.2578 46.7809 17.2578C46.4847 17.2578 46.25 17.1712 46.0768 16.998C45.9037 16.8249 45.8171 16.6107 45.8171 16.3555ZM51.334 17.2783H52.3184C52.7012 17.2783 53.0179 17.2122 53.2686 17.0801C53.5238 16.9479 53.7129 16.7656 53.8359 16.5332C53.959 16.3008 54.0205 16.0342 54.0205 15.7334C54.0205 15.4189 53.9635 15.1501 53.8496 14.9268C53.7402 14.6989 53.5716 14.5234 53.3438 14.4004C53.1205 14.2773 52.8356 14.2158 52.4893 14.2158C52.1976 14.2158 51.9333 14.2751 51.6963 14.3936C51.4639 14.5075 51.2793 14.6715 51.1426 14.8857C51.0059 15.0954 50.9375 15.346 50.9375 15.6377H49.2832C49.2832 15.109 49.4222 14.6396 49.7002 14.2295C49.9782 13.8193 50.3565 13.498 50.835 13.2656C51.318 13.0286 51.8604 12.9102 52.4619 12.9102C53.1045 12.9102 53.665 13.0173 54.1436 13.2314C54.6266 13.4411 55.0026 13.7555 55.2715 14.1748C55.5404 14.5941 55.6748 15.1136 55.6748 15.7334C55.6748 16.016 55.6087 16.3031 55.4766 16.5947C55.3444 16.8864 55.1484 17.153 54.8887 17.3945C54.6289 17.6315 54.3053 17.8252 53.918 17.9756C53.5306 18.1214 53.0817 18.1943 52.5713 18.1943H51.334V17.2783ZM51.334 18.5635V17.6611H52.5713C53.1546 17.6611 53.6514 17.7295 54.0615 17.8662C54.4762 18.0029 54.8135 18.1921 55.0732 18.4336C55.333 18.6706 55.5221 18.9417 55.6406 19.2471C55.7637 19.5524 55.8252 19.876 55.8252 20.2178C55.8252 20.6826 55.7409 21.0973 55.5723 21.4619C55.4082 21.8219 55.1735 22.1273 54.8682 22.3779C54.5628 22.6286 54.2051 22.8177 53.7949 22.9453C53.3893 23.0729 52.9473 23.1367 52.4688 23.1367C52.0404 23.1367 51.6302 23.0775 51.2383 22.959C50.8464 22.8405 50.4955 22.665 50.1856 22.4326C49.8757 22.1956 49.6296 21.9017 49.4473 21.5508C49.2695 21.1953 49.1807 20.7852 49.1807 20.3203H50.8281C50.8281 20.6165 50.8965 20.8786 51.0332 21.1064C51.1745 21.3298 51.3705 21.5052 51.6211 21.6328C51.8763 21.7604 52.168 21.8242 52.4961 21.8242C52.8425 21.8242 53.141 21.7627 53.3916 21.6396C53.6423 21.5166 53.8337 21.3343 53.9658 21.0928C54.1025 20.8512 54.1709 20.5596 54.1709 20.2178C54.1709 19.8304 54.0957 19.516 53.9453 19.2744C53.7949 19.0329 53.5807 18.8551 53.3027 18.7412C53.0247 18.6227 52.6966 18.5635 52.3184 18.5635H51.334ZM63.8578 17.1895V18.8164C63.8578 19.5957 63.7803 20.2611 63.6253 20.8125C63.4749 21.3594 63.2562 21.8037 62.9691 22.1455C62.682 22.4873 62.3379 22.738 61.9369 22.8975C61.5404 23.057 61.096 23.1367 60.6039 23.1367C60.2119 23.1367 59.8473 23.0866 59.5101 22.9863C59.1774 22.8861 58.8766 22.7288 58.6078 22.5146C58.3389 22.3005 58.1087 22.0247 57.9173 21.6875C57.7305 21.3457 57.5846 20.9378 57.4798 20.4639C57.3796 19.9899 57.3294 19.4408 57.3294 18.8164V17.1895C57.3294 16.4056 57.4069 15.7448 57.5619 15.207C57.7168 14.6647 57.9378 14.2249 58.2249 13.8877C58.5121 13.5459 58.8539 13.2975 59.2503 13.1426C59.6514 12.9876 60.098 12.9102 60.5902 12.9102C60.9867 12.9102 61.3512 12.9603 61.6839 13.0605C62.0212 13.1562 62.322 13.3089 62.5863 13.5186C62.8552 13.7282 63.083 14.0016 63.2699 14.3389C63.4613 14.6715 63.6071 15.0749 63.7074 15.5488C63.8076 16.0182 63.8578 16.5651 63.8578 17.1895ZM62.2103 19.0488V16.9434C62.2103 16.5469 62.1875 16.1982 62.1419 15.8975C62.0964 15.5921 62.028 15.3346 61.9369 15.125C61.8503 14.9108 61.7409 14.7376 61.6087 14.6055C61.4766 14.4688 61.3262 14.3708 61.1576 14.3115C60.9889 14.2477 60.7998 14.2158 60.5902 14.2158C60.335 14.2158 60.1071 14.266 59.9066 14.3662C59.7061 14.4619 59.5374 14.6169 59.4007 14.8311C59.264 15.0452 59.1592 15.3278 59.0863 15.6787C59.0179 16.0251 58.9837 16.4466 58.9837 16.9434V19.0488C58.9837 19.4499 59.0065 19.8031 59.0521 20.1084C59.0977 20.4137 59.166 20.6758 59.2572 20.8945C59.3483 21.1087 59.4577 21.2865 59.5853 21.4277C59.7175 21.5645 59.8678 21.6647 60.0365 21.7285C60.2096 21.7923 60.3988 21.8242 60.6039 21.8242C60.8636 21.8242 61.0938 21.7741 61.2943 21.6738C61.4948 21.5736 61.6634 21.4141 61.8001 21.1953C61.9369 20.972 62.0394 20.6826 62.1078 20.3271C62.1761 19.9717 62.2103 19.5456 62.2103 19.0488Z" fill="white" fill-opacity="0.9"/>-->
</g>
<defs>
<clipPath id="clip0_387_10873">
<rect width="393" height="852" fill="white"/>
</clipPath>
</defs>
</svg>
